<svg width="199" height="46" viewBox="0 0 199 46" fill="none" xmlns="http://www.w3.org/2000/svg">
<path d="M24.231 7.46348C20.8628 7.18087 17.4914 7.97089 14.5994 9.72052C11.7073 11.4702 9.44281 14.0897 8.12984 17.2044C6.81687 20.3191 6.52273 23.7692 7.2895 27.0612C8.05628 30.3532 9.84468 33.3183 12.3988 35.5322C14.9529 37.7462 18.1419 39.0955 21.5094 39.3871C24.8769 39.6788 28.2503 38.8978 31.1471 37.1559C34.0438 35.414 36.3153 32.8006 37.6366 29.6894C38.9579 26.5783 39.2613 23.1289 38.5034 19.8349" stroke="#BAC4D7" stroke-width="5.29143" stroke-linecap="round" stroke-linejoin="round"/>
<rect x="31.0391" y="5.81091" width="7.40311" height="7.40311" rx="3.70156" fill="#0058FF"/>
<path d="M60.0477 3.4377C56.4519 3.69597 53.5973 5.39243 52.1258 8.15484C50.953 10.3528 50.8129 13.3402 51.7718 15.7264C52.8855 18.4924 55.3565 20.4397 58.5725 21.0777C59.3987 21.2436 60.022 21.299 61.0435 21.299C63.0314 21.299 64.6172 20.956 66.1477 20.1925C68.7589 18.8907 70.437 16.5894 70.8759 13.7053C70.9607 13.1521 70.9717 11.6105 70.8981 11.0684C70.4406 7.83398 68.4823 5.38136 65.3696 4.16067C63.8502 3.5632 61.9397 3.30129 60.0477 3.4377ZM62.0799 7.39868C64.2411 7.68635 65.8158 8.85916 66.406 10.6258C66.5977 11.2011 66.6605 11.6141 66.6605 12.3038C66.6605 13.4397 66.4133 14.2842 65.8269 15.1621C65.5909 15.5162 64.9749 16.132 64.6209 16.3681C63.6178 17.0392 62.445 17.3712 61.0805 17.375C59.9519 17.375 59.0962 17.1979 58.2074 16.7811C57.6579 16.523 57.2412 16.2315 56.8208 15.8075C56.1348 15.1215 55.729 14.3544 55.5225 13.3733C55.445 12.9897 55.4339 11.7284 55.5078 11.3265C55.8065 9.67064 56.8872 8.40189 58.543 7.7638C58.9487 7.60527 59.5204 7.46143 59.9741 7.39868C60.4535 7.3323 61.5967 7.3323 62.0799 7.39868Z" fill="#000814"/>
<path d="M86.1074 3.43788C83.2233 3.66295 80.8113 4.77664 79.2402 6.61709C78.178 7.85992 77.529 9.31676 77.282 11.0132C77.1935 11.6292 77.1935 12.9826 77.2856 13.5948C77.4331 14.6274 77.6655 15.3983 78.0859 16.2649C78.5138 17.1501 78.9268 17.7402 79.6275 18.4556C80.3172 19.1601 81.0364 19.6875 81.9215 20.1412C83.4963 20.9451 85.0859 21.2991 87.1179 21.2991C89.1058 21.2955 90.7027 20.9489 92.2221 20.1891C93.3286 19.6359 94.4018 18.7876 95.1099 17.9098C96.1167 16.6632 96.7548 15.1438 96.9687 13.4842C97.0499 12.8756 97.0314 11.5222 96.9355 10.9026C96.7512 9.71871 96.3786 8.67503 95.7886 7.70502C95.1395 6.62816 94.1622 5.65451 93.0373 4.95746C91.7944 4.18297 90.2933 3.68129 88.6669 3.48956C88.0584 3.41954 86.7049 3.38998 86.1074 3.43788ZM88.4456 7.43585C89.3161 7.59438 90.2454 7.9742 90.8429 8.41313C91.7059 9.05122 92.3145 9.94742 92.5836 10.9837C92.6832 11.3709 92.6979 11.4964 92.7128 12.1011C92.7422 13.1043 92.6132 13.7903 92.2628 14.5168C91.7797 15.5126 91.0606 16.2317 90.0499 16.7296C89.5078 16.9952 89.0579 17.1464 88.4456 17.2718C88.0658 17.3456 87.922 17.3566 87.0996 17.3566C86.2438 17.353 86.1443 17.3456 85.7128 17.2534C84.894 17.08 84.1527 16.7777 83.5405 16.3683C83.1865 16.1321 82.5705 15.5163 82.3345 15.1623C81.9769 14.6274 81.7407 14.0669 81.5969 13.4214C81.5011 12.9752 81.5011 11.6254 81.6007 11.1792C82.0543 9.11017 83.6697 7.73821 86.0485 7.39522C86.5426 7.3252 87.9737 7.35097 88.4456 7.43585Z" fill="#000814"/>
<path d="M126.776 4.21624C126.798 4.8763 126.86 5.19353 127.052 5.6176C127.458 6.51016 128.317 7.19978 129.28 7.3953C129.516 7.44319 129.859 7.45426 131.264 7.45426H132.96V14.2772V21.1H133.58C134.491 21.1 134.993 21.0079 135.505 20.7498C136.365 20.3183 137.017 19.4442 137.183 18.5038C137.231 18.2197 137.239 17.4821 137.239 12.8168V7.45426H140.344H143.446L143.423 6.88998C143.409 6.5138 143.376 6.22613 143.324 6.01591C143.055 4.91692 142.192 4.04285 141.052 3.72199L140.761 3.63711L133.757 3.62605L126.754 3.61877L126.776 4.21624Z" fill="#000814"/>
<path d="M106.093 3.71083C105.44 3.8436 104.85 4.3083 104.544 4.92789C104.286 5.45155 104.304 4.80982 104.304 13.344V21.0631H104.943C105.651 21.0631 106.067 21.0078 106.477 20.8676C107.299 20.5799 108.041 19.8571 108.365 19.0199C108.538 18.5737 108.583 18.2086 108.583 17.2423V16.3793H110.792H113.001L113.152 16.619C113.237 16.7481 113.746 17.5262 114.288 18.3413C115.133 19.6137 115.317 19.8718 115.59 20.1412C116.077 20.6242 116.696 20.9304 117.371 21.0225C117.652 21.0631 121.306 21.0816 121.306 21.0446C121.306 21.0374 120.495 19.8386 119.507 18.382C118.515 16.9251 117.677 15.6896 117.64 15.638L117.578 15.5385L117.865 15.3836C119.009 14.7565 119.813 13.9378 120.362 12.8424C121.203 11.1754 121.218 8.78187 120.407 7.06692C119.525 5.2045 117.689 4.11278 114.815 3.74402C114.373 3.68507 113.86 3.67764 110.334 3.67021C107.019 3.66294 106.307 3.67021 106.093 3.71083ZM114.225 7.5833C115.833 7.83035 116.615 8.67502 116.534 10.0727C116.49 10.8177 116.317 11.2345 115.87 11.6771C115.52 12.0237 115.147 12.2303 114.591 12.3777C114.015 12.529 113.709 12.5437 111.083 12.5437H108.583V10.0358V7.52798H111.231C113.362 7.52798 113.941 7.53905 114.225 7.5833Z" fill="#000814"/>
<path d="M71.3286 29.0429C71.2529 29.0524 70.9972 29.0855 70.77 29.1139C69.615 29.2559 68.4316 29.7293 67.5369 30.4062C67.1677 30.6807 66.5476 31.3293 66.2967 31.6985C65.5819 32.7541 65.26 33.9375 65.3121 35.334C65.3452 36.3422 65.5204 37.0381 65.9322 37.8665C67.1109 40.2049 69.8233 41.4925 72.9191 41.1753C75.3286 40.9339 77.1984 39.7552 78.164 37.8665C78.6043 37.0144 78.7936 36.1671 78.7936 35.0973C78.7984 33.3979 78.2303 31.992 77.0942 30.8748C75.8966 29.6961 74.2729 29.0808 72.2517 29.0382C71.8209 29.0287 71.4091 29.0287 71.3286 29.0429ZM73.2457 31.76C73.4682 31.8121 73.8611 31.9588 74.1215 32.0867C74.9404 32.489 75.4942 33.1091 75.783 33.9612C75.9534 34.4677 75.9913 35.2535 75.8777 35.8357C75.6078 37.1848 74.5522 38.2026 73.0943 38.5055C71.4753 38.8464 69.7807 38.3635 68.9144 37.3126C68.6067 36.9387 68.3558 36.4464 68.247 35.9967C68.1334 35.547 68.1381 34.5955 68.247 34.1837C68.6115 32.8204 69.6576 31.9399 71.2055 31.689C71.7546 31.5991 72.7108 31.6322 73.2457 31.76Z" fill="#0058FF"/>
<path d="M165.458 29.0621C164.454 29.1899 163.739 29.3934 162.92 29.7911C161.287 30.5911 160.203 31.9686 159.796 33.7721C159.678 34.3023 159.654 35.533 159.754 36.12C160.076 38.0797 161.273 39.6655 163.058 40.5129C165.117 41.488 167.886 41.4596 169.931 40.4371C171.346 39.7271 172.412 38.5152 172.885 37.0667C173.103 36.3993 173.15 36.0443 173.15 35.0502C173.15 34.165 173.141 34.0703 173.017 33.5969C172.795 32.7401 172.525 32.1674 172.052 31.5283C171.129 30.2928 169.68 29.4502 167.967 29.152C167.337 29.0431 166.007 28.9958 165.458 29.0621ZM167.635 31.7603C167.862 31.8123 168.255 31.9638 168.53 32.1011C168.937 32.2999 169.088 32.4088 169.382 32.7023C169.978 33.2987 170.258 33.9425 170.319 34.8466C170.371 35.6703 170.182 36.3946 169.746 37.0573C169.301 37.7247 168.554 38.2265 167.645 38.4679C167.247 38.5721 167.086 38.591 166.452 38.5957C165.548 38.5957 165.093 38.501 164.388 38.1508C163.124 37.5259 162.457 36.3377 162.537 34.8608C162.636 33.1378 163.834 31.9307 165.704 31.6656C166.168 31.5993 167.176 31.6514 167.635 31.7603Z" fill="#0058FF"/>
<path d="M52.8906 35.1434V41.0842H54.3107H55.7308V38.8594V36.6346H59.0681H62.4053V35.4038V34.173H59.0681H55.7308V32.966V31.7589H59.6598H63.5888V30.4808V29.2027H58.2397H52.8906V35.1434Z" fill="#0058FF"/>
<path d="M81.4336 32.6836C81.4336 36.2528 81.4525 36.7545 81.6229 37.4172C82.1294 39.4054 83.6395 40.7072 85.9069 41.1143C86.262 41.1805 86.6217 41.1995 87.327 41.1995C88.4111 41.1995 88.927 41.1285 89.7033 40.8728C90.5933 40.5746 91.2229 40.2007 91.8051 39.6231C92.4868 38.9415 92.8465 38.2598 93.1069 37.1806C93.1779 36.8871 93.1921 36.4137 93.2063 33.0244L93.2252 29.2043H91.7767H90.3329V32.7688C90.3329 36.1439 90.3282 36.3569 90.243 36.693C90.1152 37.19 89.9448 37.5072 89.6134 37.848C89.2821 38.1936 88.8371 38.435 88.3116 38.5486C87.8099 38.6622 86.7637 38.6527 86.2951 38.5344C85.2489 38.2646 84.6052 37.6019 84.3969 36.5794C84.3306 36.267 84.3211 35.7036 84.3211 32.7072V29.2043H82.8774H81.4336V32.6836Z" fill="#0058FF"/>
<path d="M96.4414 35.1434V41.0842H97.8615H99.2816V37.4346C99.2816 35.3423 99.3006 33.7943 99.3242 33.8038C99.3479 33.8085 100.744 35.3423 102.43 37.2026C104.115 39.0629 105.601 40.7008 105.734 40.8333L105.975 41.0842H107.315H108.654V35.1434V29.2027H107.211H105.767L105.757 32.8665L105.743 36.5352L102.453 32.8713L99.1633 29.2074H97.8047L96.4414 29.2027V35.1434Z" fill="#0058FF"/>
<path d="M112.299 35.1493V41.0901L115.177 41.0712C118.206 41.0522 118.448 41.038 119.418 40.8061C121.766 40.2428 123.399 38.799 123.915 36.8203C124.105 36.1008 124.147 35.6605 124.119 34.7943C124.09 33.9848 124.029 33.6156 123.825 33.0097C123.215 31.1967 121.709 29.9659 119.489 29.4689C118.429 29.2322 117.951 29.2038 115.011 29.2038H112.299V35.1493ZM118.713 31.8925C120.015 32.2428 120.838 33.0523 121.085 34.2215C121.179 34.6759 121.156 35.7647 121.037 36.186C120.796 37.0475 120.27 37.6913 119.489 38.0747C118.704 38.4629 118.268 38.5292 116.502 38.5292H115.186V35.1398V31.7505L116.763 31.7695C118.183 31.7884 118.372 31.8026 118.713 31.8925Z" fill="#0058FF"/>
<path d="M130.854 29.4962C130.774 29.6618 129.519 32.3269 128.066 35.4275L125.42 41.0606L126.916 41.0748C127.773 41.0795 128.431 41.0653 128.454 41.0416C128.478 41.018 128.681 40.5967 128.909 40.1091L129.32 39.2144L132.468 39.2002L135.612 39.1908L136.057 40.1375L136.501 41.0842H138.012C138.84 41.0842 139.517 41.07 139.517 41.0464C139.517 41.0274 138.229 38.3624 136.662 35.1198L133.808 29.2263L132.402 29.2121L130.996 29.2027L130.854 29.4962ZM133.429 34.6275C133.969 35.7636 134.404 36.7008 134.39 36.7103C134.381 36.7198 133.496 36.7245 132.426 36.7198L130.48 36.7056L131.436 34.6369C131.962 33.4961 132.407 32.5636 132.421 32.5636C132.435 32.5636 132.89 33.4914 133.429 34.6275Z" fill="#0058FF"/>
<path d="M139.518 30.4808V31.7589H141.6H143.683V36.4215V41.0842L145.118 41.0748L146.547 41.0606L146.561 36.4073L146.571 31.7589H148.654H150.736V30.4808V29.2027H145.127H139.518V30.4808Z" fill="#0058FF"/>
<path d="M153.672 35.1434V41.0842H155.116H156.559V35.1434V29.2027H155.116H153.672V35.1434Z" fill="#0058FF"/>
<path d="M176.203 35.1434V41.0842H177.623H179.043L179.053 37.4204L179.067 33.7565L182.381 37.4204L185.694 41.0795L187.057 41.0842H188.416V35.1434V29.2027H186.972H185.528L185.519 32.8713L185.505 36.5399L182.201 32.8713L178.901 29.2027H177.552H176.203V35.1434Z" fill="#0058FF"/>
<path d="M193.209 26.7665H192.099V29.6303H191.349V26.7665H190.254V26.2211H193.209V26.7665ZM194.61 26.2211L195.542 28.6833L196.47 26.2211H197.451V29.6303H196.694V28.6833L196.777 27.0696L195.796 29.6303H195.284L194.307 27.0734L194.383 28.6833V29.6303H193.637V26.2211H194.61Z" fill="#0058FF"/>
</svg>
