<svg width="18" height="18" viewBox="0 0 18 18" fill="none" xmlns="http://www.w3.org/2000/svg">
<path fill-rule="evenodd" clip-rule="evenodd" d="M8.25 17.9583C11.5083 17.9583 12.9583 16.5083 12.9583 13.25V12.9583H13.25C16.5083 12.9583 17.9583 11.5083 17.9583 8.25V4.75C17.9583 1.49167 16.5083 0.0416666 13.25 0.0416666H9.75C6.49167 0.0416666 5.04167 1.49167 5.04167 4.75V5.04167H4.75C1.49167 5.04167 0.0416666 6.49167 0.0416666 9.75V13.25C0.0416666 16.5083 1.49167 17.9583 4.75 17.9583H8.25ZM8.25 5.04167C11.5083 5.04167 12.9583 6.49167 12.9583 9.75V11.7083H13.25C15.8333 11.7083 16.7083 10.8333 16.7083 8.25V4.75C16.7083 2.16667 15.8333 1.29167 13.25 1.29167H9.75C7.16667 1.29167 6.29167 2.16667 6.29167 4.75V5.04167H8.25ZM11.7083 9.75C11.7083 7.16667 10.8333 6.29167 8.25 6.29167H4.75C2.16667 6.29167 1.29167 7.16667 1.29167 9.75V13.25C1.29167 15.8333 2.16667 16.7083 4.75 16.7083H8.25C10.8333 16.7083 11.7083 15.8333 11.7083 13.25V9.75Z" fill="#353536"/>
</svg>
