<svg width="20" height="20" viewBox="0 0 20 20" fill="none" xmlns="http://www.w3.org/2000/svg">
<path d="M1.04167 12.5C1.04167 17.025 2.975 18.9583 7.5 18.9583H12.5C17.025 18.9583 18.9583 17.025 18.9583 12.5V10.8333C18.9583 10.4917 18.675 10.2083 18.3333 10.2083C17.9917 10.2083 17.7083 10.4917 17.7083 10.8333V12.5C17.7083 16.3417 16.3417 17.7083 12.5 17.7083H7.5C3.65833 17.7083 2.29167 16.3417 2.29167 12.5V7.5C2.29167 3.65833 3.65833 2.29167 7.5 2.29167H9.16667C9.50833 2.29167 9.79167 2.00833 9.79167 1.66667C9.79167 1.325 9.50833 1.04167 9.16667 1.04167H7.5C2.975 1.04167 1.04167 2.975 1.04167 7.5V12.5Z" fill="#353536"/>
<path d="M18.3335 6.29167C17.9918 6.29167 17.7085 6.00833 17.7085 5.66667V3.17478L11.275 9.60833C11.15 9.73333 10.9916 9.79166 10.8333 9.79166C10.675 9.79166 10.5166 9.73333 10.3916 9.60833C10.15 9.36666 10.15 8.96666 10.3916 8.72499L16.8249 2.29167H14.3335C13.9918 2.29167 13.7085 2.00833 13.7085 1.66667C13.7085 1.325 13.9918 1.04167 14.3335 1.04167H18.3335C18.6752 1.04167 18.9585 1.325 18.9585 1.66667V5.66667C18.9585 6.00833 18.6752 6.29167 18.3335 6.29167Z" fill="#353536"/>
</svg>
