<svg width="18" height="18" viewBox="0 0 18 18" fill="none" xmlns="http://www.w3.org/2000/svg">
<path d="M7.37536 11.8001C7.49203 11.9167 7.65036 11.9834 7.81703 11.9834C7.98369 11.9834 8.14202 11.9167 8.25869 11.8001L12.9837 7.07508C13.2254 6.83341 13.2254 6.43341 12.9837 6.19175C12.742 5.95008 12.342 5.95008 12.1004 6.19175L7.81703 10.4751L5.90036 8.55841C5.65869 8.31675 5.25869 8.31675 5.01702 8.55841C4.77536 8.80008 4.77536 9.20008 5.01702 9.44175L7.37536 11.8001Z" fill="#007132"/>
<path fill-rule="evenodd" clip-rule="evenodd" d="M0.0416666 9C0.0416666 13.9417 4.05833 17.9583 9 17.9583C13.9417 17.9583 17.9583 13.9417 17.9583 9C17.9583 4.05833 13.9417 0.0416666 9 0.0416666C4.05833 0.0416666 0.0416666 4.05833 0.0416666 9ZM1.29167 9C1.29167 4.75 4.75 1.29167 9 1.29167C13.25 1.29167 16.7083 4.75 16.7083 9C16.7083 13.25 13.25 16.7083 9 16.7083C4.75 16.7083 1.29167 13.25 1.29167 9Z" fill="#007132"/>
</svg>
