<svg width="90" height="90" viewBox="0 0 90 90" fill="none" xmlns="http://www.w3.org/2000/svg">
<g filter="url(#filter0_d_29_958)">
<path d="M25 50C25 38.9543 33.9543 30 45 30C56.0457 30 65 38.9543 65 50C65 61.0457 56.0457 70 45 70C33.9543 70 25 61.0457 25 50Z" fill="white" shape-rendering="crispEdges"/>
<path d="M45 29.5C33.6782 29.5 24.5 38.6782 24.5 50C24.5 61.3218 33.6782 70.5 45 70.5C56.3218 70.5 65.5 61.3218 65.5 50C65.5 38.6782 56.3218 29.5 45 29.5Z" stroke="#060607" stroke-opacity="0.08" shape-rendering="crispEdges"/>
<path d="M43.6135 46.8333C43.7135 46.9333 43.8402 46.98 43.9668 46.98C44.0935 46.98 44.2201 46.9333 44.3201 46.8333C44.5135 46.64 44.5135 46.32 44.3201 46.1267L41.8401 43.6466C41.7468 43.5533 41.6201 43.5 41.4868 43.5C41.3535 43.5 41.2268 43.5533 41.1335 43.6466L38.6535 46.1267C38.4601 46.32 38.4601 46.64 38.6535 46.8333C38.8468 47.0267 39.1668 47.0267 39.3601 46.8333L40.9867 45.2068V56C40.9867 56.2733 41.2133 56.5 41.4867 56.5C41.76 56.5 41.9867 56.2733 41.9867 56V45.2065L43.6135 46.8333Z" fill="#353536"/>
<path d="M48.0133 54.7867L46.3933 53.1666C46.2 52.9733 45.88 52.9733 45.6867 53.1666C45.4933 53.36 45.4933 53.68 45.6867 53.8733L48.121 56.3077C48.213 56.4243 48.3554 56.5 48.5133 56.5L48.5182 56.5L48.52 56.5C48.6467 56.5 48.78 56.4467 48.8733 56.3533L51.3533 53.8733C51.5467 53.68 51.5467 53.36 51.3533 53.1666C51.16 52.9733 50.84 52.9733 50.6466 53.1666L49.0133 54.8V44C49.0133 43.7267 48.7867 43.5 48.5133 43.5C48.24 43.5 48.0133 43.7267 48.0133 44V54.7867Z" fill="#353536"/>
</g>
<defs>
<filter id="filter0_d_29_958" x="0" y="0" width="90" height="90" filterUnits="userSpaceOnUse" color-interpolation-filters="sRGB">
<feFlood flood-opacity="0" result="BackgroundImageFix"/>
<feColorMatrix in="SourceAlpha" type="matrix" values="0 0 0 0 0 0 0 0 0 0 0 0 0 0 0 0 0 0 127 0" result="hardAlpha"/>
<feOffset dy="-5"/>
<feGaussianBlur stdDeviation="12"/>
<feComposite in2="hardAlpha" operator="out"/>
<feColorMatrix type="matrix" values="0 0 0 0 0 0 0 0 0 0.25098 0 0 0 0 0.65098 0 0 0 0.05 0"/>
<feBlend mode="normal" in2="BackgroundImageFix" result="effect1_dropShadow_29_958"/>
<feBlend mode="normal" in="SourceGraphic" in2="effect1_dropShadow_29_958" result="shape"/>
</filter>
</defs>
</svg>
