<svg width="129" height="32" viewBox="0 0 129 32" fill="none" xmlns="http://www.w3.org/2000/svg">
<g opacity="0.7">
<path d="M20.8997 16.008C20.8997 16.168 20.872 16.318 20.8164 16.458C20.7608 16.598 20.6775 16.7236 20.5664 16.8347L14.2444 23.1567C13.9924 23.4087 13.7053 23.5292 13.3831 23.518C13.0609 23.5069 12.7775 23.3792 12.5331 23.1347C12.2886 22.8903 12.1664 22.6069 12.1664 22.2847C12.1664 21.9625 12.2886 21.6792 12.5331 21.4347L17.9997 16.0014L12.5331 10.5347C12.2886 10.2903 12.172 10.0069 12.1831 9.68471C12.1942 9.36249 12.322 9.07916 12.5664 8.83471C12.8108 8.59027 13.0942 8.46805 13.4164 8.46805C13.7386 8.46805 14.0251 8.59405 14.2757 8.84605L20.5664 15.168C20.6775 15.288 20.7608 15.418 20.8164 15.558C20.872 15.698 20.8997 15.848 20.8997 16.008Z" fill="#1F1F1F"/>
</g>
<g opacity="0.5">
<path d="M52.8997 16.008C52.8997 16.168 52.872 16.318 52.8164 16.458C52.7608 16.598 52.6775 16.7236 52.5664 16.8347L46.2444 23.1567C45.9924 23.4087 45.7053 23.5292 45.3831 23.518C45.0609 23.5069 44.7775 23.3792 44.5331 23.1347C44.2886 22.8903 44.1664 22.6069 44.1664 22.2847C44.1664 21.9625 44.2886 21.6792 44.5331 21.4347L49.9997 16.0014L44.5331 10.5347C44.2886 10.2903 44.172 10.0069 44.1831 9.68471C44.1942 9.36249 44.322 9.07916 44.5664 8.83471C44.8108 8.59027 45.0942 8.46805 45.4164 8.46805C45.7386 8.46805 46.0251 8.59405 46.2757 8.84605L52.5664 15.168C52.6775 15.288 52.7608 15.418 52.8164 15.558C52.872 15.698 52.8997 15.848 52.8997 16.008Z" fill="#1F1F1F"/>
</g>
<g opacity="0.3">
<path d="M84.8997 16.008C84.8997 16.168 84.872 16.318 84.8164 16.458C84.7608 16.598 84.6775 16.7236 84.5664 16.8347L78.2444 23.1567C77.9924 23.4087 77.7053 23.5292 77.3831 23.518C77.0609 23.5069 76.7775 23.3792 76.5331 23.1347C76.2886 22.8903 76.1664 22.6069 76.1664 22.2847C76.1664 21.9625 76.2886 21.6792 76.5331 21.4347L81.9997 16.0014L76.5331 10.5347C76.2886 10.2903 76.172 10.0069 76.1831 9.68471C76.1942 9.36249 76.322 9.07916 76.5664 8.83471C76.8108 8.59027 77.0942 8.46805 77.4164 8.46805C77.7386 8.46805 78.0251 8.59405 78.2757 8.84605L84.5664 15.168C84.6775 15.288 84.7608 15.418 84.8164 15.558C84.872 15.698 84.8997 15.848 84.8997 16.008Z" fill="#1F1F1F"/>
</g>
<g opacity="0.1">
<path d="M116.9 16.008C116.9 16.168 116.872 16.318 116.816 16.458C116.761 16.598 116.678 16.7236 116.566 16.8347L110.244 23.1567C109.992 23.4087 109.705 23.5292 109.383 23.518C109.061 23.5069 108.778 23.3792 108.533 23.1347C108.289 22.8903 108.166 22.6069 108.166 22.2847C108.166 21.9625 108.289 21.6792 108.533 21.4347L114 16.0014L108.533 10.5347C108.289 10.2903 108.172 10.0069 108.183 9.68471C108.194 9.36249 108.322 9.07916 108.566 8.83471C108.811 8.59027 109.094 8.46805 109.416 8.46805C109.739 8.46805 110.025 8.59405 110.276 8.84605L116.566 15.168C116.678 15.288 116.761 15.418 116.816 15.558C116.872 15.698 116.9 15.848 116.9 16.008Z" fill="#1F1F1F"/>
</g>
</svg>
